<svg width="239" height="54" viewBox="0 0 239 54" fill="none" xmlns="http://www.w3.org/2000/svg">
<path fill-rule="evenodd" clip-rule="evenodd" d="M9.85113 32.3671L7.52544 36.7375L7.52504 51.4193H0.00113048L0.0024266 3.61813H7.52634L7.52578 24.4458L17.3758 3.61813H24.8997L14.4341 24.9238L24.8984 51.4193H17.1693L9.85113 32.3671ZM35.5206 40.425C35.5205 42.155 35.8739 43.3727 36.5807 44.0784C37.2875 44.784 38.2336 45.1368 39.4192 45.1368C40.6048 45.1368 41.551 44.784 42.2578 44.0784C42.9646 43.3727 43.3181 42.155 43.3181 40.425L43.3188 14.6124C43.3189 12.8824 42.9655 11.6646 42.2587 10.959C41.5519 10.2533 40.6058 9.90053 39.4202 9.90053C38.2346 9.90053 37.2884 10.2533 36.5816 10.959C35.8748 11.6646 35.5213 12.8824 35.5213 14.6124L35.5206 40.425ZM27.9968 15.0905C27.9969 11.2208 28.9774 8.25037 30.9382 6.17898C32.8991 4.10758 35.7262 3.0719 39.4198 3.0719C43.1134 3.0719 45.9405 4.10758 47.9012 6.17898C49.862 8.25037 50.8422 11.2208 50.8421 15.0905L50.8415 39.9471C50.8414 43.8167 49.8609 46.7872 47.9001 48.8586C45.9392 50.93 43.1121 51.9657 39.4185 51.9657C35.7249 51.9657 32.8978 50.93 30.9371 48.8586C28.9763 46.7872 27.996 43.8167 27.9961 39.9471L27.9968 15.0905ZM63.1737 16.7977L63.1728 51.4195H56.4013L56.4026 3.61827H65.8416L73.57 32.2307L73.5708 3.61827H80.2739L80.2726 51.4195H72.5435L63.1737 16.7977ZM85.4917 15.0905C85.4918 11.2209 86.4152 8.25039 88.2621 6.179C90.1089 4.1076 92.8791 3.07192 96.5727 3.07192C100.266 3.07192 103.036 4.1076 104.883 6.179C106.73 8.25039 107.653 11.2209 107.653 15.0905L107.653 16.5928H100.539L100.54 14.6125C100.54 12.8825 100.209 11.6648 99.5478 10.9591C98.8866 10.2535 97.9633 9.90066 96.7777 9.90066C95.5921 9.90066 94.6687 10.2535 94.0075 10.9591C93.3463 11.6648 93.0156 12.8825 93.0156 14.6125C93.0155 16.2514 93.3803 17.6968 94.1099 18.9487C94.8394 20.2007 95.7514 21.3843 96.8457 22.4997C97.9401 23.6151 99.1142 24.7304 100.368 25.8458C101.622 26.9611 102.796 28.1789 103.891 29.4991C104.985 30.8194 105.897 32.3217 106.627 34.0061C107.356 35.6905 107.721 37.6709 107.721 39.9471C107.721 43.8168 106.774 46.7872 104.882 48.8586C102.989 50.93 100.197 51.9657 96.5029 51.9657C92.8094 51.9657 90.0164 50.93 88.1241 48.8586C86.2318 46.7872 85.2857 43.8168 85.2858 39.9471L85.2859 37.0108H92.3994L92.3993 40.4251C92.3993 42.1551 92.7526 43.3615 93.4594 44.0444C94.1662 44.7272 95.1123 45.0687 96.2979 45.0687C97.4835 45.0687 98.4297 44.7272 99.1365 44.0444C99.8433 43.3615 100.197 42.1551 100.197 40.4251C100.197 38.7862 99.8321 37.3408 99.1025 36.0889C98.373 34.8369 97.461 33.6533 96.3667 32.5379C95.2723 31.4226 94.0982 30.3072 92.8442 29.1919C91.5902 28.0765 90.4161 26.8587 89.3217 25.5385C88.2274 24.2183 87.3154 22.7159 86.5859 21.0315C85.8563 19.3471 85.4916 17.3668 85.4917 15.0905ZM110.614 3.61811H133.87L133.869 10.4468H126.004L126.002 51.4193H118.479L118.48 10.4468H110.614L110.614 3.61811ZM153.655 51.4193C153.564 51.1006 153.472 50.8047 153.381 50.5315C153.29 50.2584 153.21 49.917 153.142 49.5072C153.073 49.0975 153.028 48.574 153.005 47.9366C152.982 47.2993 152.971 46.5026 152.971 45.5466L152.971 38.0349C152.971 35.8042 152.584 34.2336 151.809 33.3231C151.033 32.4126 149.779 31.9574 148.047 31.9574H145.447L145.447 51.4193H137.923L137.924 3.61809H149.279C153.2 3.61809 156.039 4.52858 157.794 6.34958C159.55 8.17059 160.427 10.9248 160.427 14.6124L160.427 18.3682C160.427 23.2849 158.785 26.5171 155.502 28.065C157.417 28.8389 158.728 30.1022 159.435 31.8549C160.142 33.6077 160.495 35.7359 160.495 38.2398L160.495 45.6148C160.495 46.7985 160.54 47.8342 160.632 48.7219C160.723 49.6097 160.951 50.5088 161.316 51.4193H153.655ZM145.449 10.447L145.448 25.1288H148.389C149.803 25.1288 150.909 24.7646 151.707 24.0362C152.505 23.3078 152.904 21.9875 152.904 20.0755L152.904 15.3637C152.904 13.6337 152.596 12.3818 151.981 11.6079C151.365 10.8339 150.396 10.447 149.074 10.447H145.449ZM173.375 3.61825L173.374 40.4935C173.374 42.2234 173.727 43.4298 174.434 44.1127C175.141 44.7956 176.087 45.137 177.272 45.137C178.458 45.137 179.404 44.7956 180.111 44.1127C180.818 43.4298 181.171 42.2234 181.171 40.4935L181.172 3.61825H188.286L188.285 40.0154C188.285 43.8851 187.339 46.8555 185.446 48.9269C183.554 50.9983 180.761 52.034 177.067 52.034C173.373 52.034 170.581 50.9983 168.688 48.9269C166.796 46.8555 165.85 43.8851 165.85 40.0154L165.851 3.61825H173.375ZM214.746 3.61826H238.002L238.002 10.447H230.136L230.135 51.4195H222.611L222.612 10.447H214.746L214.746 3.61826Z" fill="#1A1A1A"/>
<path fill-rule="evenodd" clip-rule="evenodd" d="M188.955 27L208.499 0L208.497 54L188.955 27Z" fill="#1A1A1A"/>
</svg>
